<?xml version="1.0" standalone="no"?>
<!DOCTYPE svg PUBLIC "-//W3C//DTD SVG 20010904//EN"
 "http://www.w3.org/TR/2001/REC-SVG-20010904/DTD/svg10.dtd">
<svg version="1.0" xmlns="http://www.w3.org/2000/svg"
 width="16.000000pt" height="16.000000pt" viewBox="0 0 16.000000 16.000000"
 preserveAspectRatio="xMidYMid meet">
<metadata>
Created by potrace 1.11, written by Peter Selinger 2001-2013
</metadata>
<g transform="translate(0.000000,16.000000) scale(0.006154,-0.006154)"
fill="#000000" stroke="none">
<path d="M113 2433 c4 -123 11 -190 26 -251 12 -46 21 -88 21 -93 0 -6 -23
-33 -51 -61 l-51 -51 70 7 70 7 47 -88 c64 -118 139 -216 235 -307 68 -63 206
-166 223 -166 3 0 -17 37 -44 82 -27 44 -49 85 -49 90 0 6 14 -2 31 -16 17
-14 34 -26 39 -26 5 0 18 -19 28 -42 54 -123 217 -183 361 -134 63 22 146 97
157 143 9 35 20 43 64 43 44 0 55 -8 64 -43 11 -46 94 -121 157 -143 144 -49
307 11 361 134 10 23 23 42 28 42 5 0 22 12 39 26 17 14 31 23 31 19 0 -11
-42 -89 -72 -132 -16 -24 -26 -43 -22 -43 19 0 159 104 227 169 141 135 243
293 307 476 28 83 34 93 75 119 25 15 45 31 45 35 0 3 -15 14 -32 24 l-33 17
4 165 3 165 -1182 0 -1183 0 6 -167z m658 -174 c204 -127 505 -251 714 -295
171 -35 430 -16 609 46 l58 20 -7 -28 c-10 -40 -92 -233 -127 -297 -37 -69
-111 -129 -148 -121 -94 22 -236 29 -367 17 -170 -15 -249 -15 -427 0 -132 12
-273 5 -366 -17 -38 -8 -111 52 -149 123 -17 31 -59 126 -93 211 -59 147 -61
154 -43 164 39 20 151 144 184 201 l33 58 27 -17 c14 -10 60 -39 102 -65z
m430 -696 c32 -32 -47 -130 -128 -157 -114 -39 -248 5 -298 98 -37 69 -20 75
242 72 115 -1 176 -5 184 -13z m569 9 c57 -9 62 -32 21 -89 -91 -126 -320
-119 -402 13 -28 46 -22 68 21 75 48 9 305 9 360 1z"/>
<path d="M803 1887 c5 -14 2 -15 -18 -7 -20 7 -25 6 -25 -5 0 -18 -5 -18 -32
-4 -25 14 -35 4 -17 -18 13 -15 12 -16 -6 -9 -42 17 -87 27 -93 22 -3 -4 10
-22 29 -42 l34 -35 -44 16 c-24 8 -55 15 -70 15 l-26 -1 34 -28 c19 -16 53
-38 75 -51 l41 -22 40 38 c35 33 40 35 43 18 8 -41 36 -86 63 -99 76 -40 169
13 169 97 l0 32 32 -30 31 -29 -21 31 c-30 43 -88 93 -115 98 -12 3 -38 7 -57
10 -19 2 -44 8 -54 12 -15 6 -18 4 -13 -9z m42 -112 c0 -22 -31 -33 -47 -17
-17 17 -1 44 24 40 15 -2 23 -10 23 -23z"/>
<path d="M1745 1890 c-11 -5 -35 -9 -53 -9 -42 -1 -79 -21 -118 -63 -47 -51
-62 -76 -26 -44 l32 30 0 -28 c0 -134 185 -159 223 -30 l14 47 40 -40 40 -40
65 43 c36 23 69 47 72 53 10 16 -34 14 -85 -4 l-44 -16 34 35 c19 20 32 39 28
42 -3 3 -27 -1 -53 -10 -58 -20 -60 -20 -44 -1 17 21 7 29 -18 16 -27 -14 -32
-14 -32 4 0 11 -5 12 -25 5 -19 -7 -23 -6 -18 5 6 17 -2 18 -32 5z m-92 -102
c7 -21 -4 -38 -23 -38 -23 0 -34 16 -26 35 7 18 43 20 49 3z"/>
<path d="M0 640 l0 -640 1300 0 1300 0 0 640 0 640 -1300 0 -1300 0 0 -640z
m1111 494 c22 -24 24 -33 24 -137 0 -129 -25 -240 -79 -348 -38 -77 -33 -109
15 -109 25 0 29 5 39 43 28 114 41 144 80 182 40 39 43 40 110 40 40 0 74 -5
81 -12 9 -9 5 -33 -15 -105 -32 -112 -32 -128 -6 -128 24 0 42 28 65 100 33
102 79 140 174 140 l50 0 20 68 c11 37 34 118 52 180 l32 112 49 0 c26 0 48
-2 48 -5 0 -2 -24 -93 -54 -202 -109 -395 -112 -413 -72 -413 49 0 87 56 135
203 l23 67 39 0 c34 0 40 -3 35 -17 -19 -67 -26 -108 -28 -164 l-3 -64 30 2
c54 4 79 33 86 99 9 95 40 141 102 151 43 7 77 -22 77 -65 0 -39 -45 -126 -81
-156 -36 -30 -36 -39 -3 -55 32 -14 87 -5 108 18 9 9 40 69 70 133 l55 116 35
-10 34 -11 -15 -42 c-15 -40 -15 -43 9 -86 14 -24 31 -61 38 -81 6 -21 15 -38
19 -38 4 0 15 -6 25 -13 16 -12 16 -14 -4 -39 -18 -23 -24 -26 -44 -17 -18 9
-29 7 -50 -6 -32 -21 -98 -16 -127 11 -18 17 -21 16 -63 -4 -62 -31 -91 -27
-143 20 -21 20 -21 20 -66 -6 -62 -37 -99 -34 -134 8 l-27 35 -38 -34 c-21
-19 -49 -37 -63 -41 -36 -9 -106 4 -127 22 -15 15 -19 14 -40 0 -27 -19 -81
-20 -123 -2 -25 10 -34 10 -57 -3 -24 -14 -30 -14 -60 1 -29 14 -38 14 -59 2
-29 -16 -73 -18 -99 -4 -13 7 -29 5 -54 -5 -73 -31 -162 -7 -173 46 -3 16 -8
29 -10 29 -3 0 -21 -13 -39 -30 -19 -16 -51 -34 -72 -39 l-38 -11 -56 -172
-56 -173 -82 -3 c-82 -3 -82 -3 -76 20 3 13 6 28 6 35 0 7 21 15 50 19 l50 7
40 126 c22 70 40 130 40 134 0 4 -25 7 -55 7 -51 0 -55 2 -62 28 -4 15 -8 66
-8 114 l0 87 -32 -31 c-20 -19 -41 -56 -53 -92 -31 -92 -44 -105 -124 -117
-38 -6 -83 -9 -101 -7 l-34 4 -36 -156 c-20 -85 -38 -161 -40 -168 -6 -17 -85
-16 -85 2 0 7 11 68 25 136 52 254 88 494 80 522 -8 22 -33 23 -64 2 -22 -16
-24 -15 -50 10 l-26 27 30 25 c36 30 86 54 115 54 36 0 70 -44 70 -90 0 -22 2
-40 4 -40 2 0 19 7 39 15 19 8 56 19 81 25 56 12 102 -6 112 -45 8 -33 14 -32
54 10 37 39 78 46 101 18 9 -10 16 -54 19 -127 5 -101 7 -111 24 -111 26 0 52
54 78 164 l22 91 43 0 c40 0 43 -2 38 -22 -33 -129 -50 -224 -43 -227 13 -5
58 39 70 69 6 14 14 95 18 180 6 115 14 173 30 224 36 115 98 156 151 100z
m885 -189 c15 -23 15 -27 0 -50 -31 -48 -96 -26 -96 32 0 47 68 60 96 18z"/>
<path d="M1035 988 c-17 -60 -35 -178 -34 -223 l1 -30 9 30 c24 77 59 223 59
248 0 44 -18 31 -35 -25z"/>
<path d="M2115 730 c-4 -6 -11 -24 -15 -41 -8 -27 -7 -29 6 -18 8 7 22 25 30
41 13 25 13 28 0 28 -8 0 -18 -5 -21 -10z"/>
<path d="M1575 713 c-44 -11 -92 -86 -80 -124 9 -26 45 -40 81 -30 26 7 30 15
45 79 9 39 14 74 11 77 -6 6 -28 5 -57 -2z"/>
<path d="M350 691 c-30 -16 -37 -27 -51 -85 l-17 -66 54 0 c41 0 59 5 81 24
24 21 27 31 28 82 0 58 0 59 -30 61 -16 2 -46 -6 -65 -16z"/>
<path d="M1241 684 c-49 -62 -44 -142 7 -115 18 10 52 95 52 130 0 21 -39 11
-59 -15z"/>
<path d="M2351 601 c-22 -43 -22 -45 -5 -58 23 -17 53 -17 60 1 3 8 -3 34 -14
58 l-19 43 -22 -44z"/>
</g>
</svg>
